<svg id="Layer_1" viewBox="0 0 64 64" xmlns="http://www.w3.org/2000/svg"><path d="M47,23H17a1,1,0,0,0-1,1V43H48V24A1,1,0,0,0,47,23ZM46,40a1,1,0,0,1-1,1H19a1,1,0,0,1-1-1V26a1,1,0,0,1,1-1H45a1,1,0,0,1,1,1Z"></path><polygon points="12.618 45 13.618 47 50.382 47 51.382 45 12.618 45"></polygon><path d="M20,39H44V27H20Zm17.293-8.293,1.414-1.414,3,3a1,1,0,0,1,0,1.414l-3,3-1.414-1.414L39.586,33Zm-7.188-1.154,1.79.894-3,6-1.79-.894Zm-7.812,2.74,3-3,1.414,1.414L24.414,33l2.293,2.293-1.414,1.414-3-3A1,1,0,0,1,22.293,32.293Z"></path><path d="M9,31h5V24a3,3,0,0,1,3-3H47a3,3,0,0,1,3,3v7a10,10,0,0,0,0-20h-.61a1,1,0,0,1-.943-.667,9.486,9.486,0,0,0-17.573-.794,1,1,0,0,1-1.619.285A9.5,9.5,0,0,0,13,16.5V20a1,1,0,0,1-1,1H9A5,5,0,0,0,9,31Zm47-7H54V22h2ZM50,14a6.006,6.006,0,0,1,6,6H54a4,4,0,0,0-4-4Z"></path><path d="M62,57H35.858A4,4,0,0,0,33,54.142V48H31v6.142A4,4,0,0,0,28.142,57H2v2H28.142a3.981,3.981,0,0,0,7.716,0H62ZM32,60a2,2,0,1,1,2-2A2,2,0,0,1,32,60Z"></path></svg>